<?xml version="1.0" standalone="no"?>
<!DOCTYPE svg PUBLIC "-//W3C//DTD SVG 20010904//EN"
 "http://www.w3.org/TR/2001/REC-SVG-20010904/DTD/svg10.dtd">
<svg version="1.0" xmlns="http://www.w3.org/2000/svg"
 width="1024.000000pt" height="768.000000pt" viewBox="0 0 1024.000000 768.000000"
 preserveAspectRatio="xMidYMid meet">

<g transform="translate(0.000000,768.000000) scale(0.100000,-0.100000)"
fill="#000000" stroke="none">
<path d="M3786 4444 c-4 -366 -4 -669 -1 -673 4 -3 49 -6 101 -6 l94 0 2 478
c2 262 3 564 3 670 l0 192 -96 3 -96 3 -7 -667z"/>
<path d="M4752 4438 l3 -663 103 -3 102 -3 0 317 0 317 40 54 c58 76 105 105
175 105 61 1 91 -15 129 -66 20 -26 21 -44 26 -374 l5 -347 100 3 c55 2 101 5
103 7 2 1 3 156 2 344 -1 387 -7 429 -76 509 -59 69 -102 87 -214 87 -114 0
-163 -18 -240 -91 l-50 -47 0 257 0 256 -105 0 -105 0 2 -662z"/>
<path d="M5450 5091 c0 -6 24 -60 54 -119 29 -59 90 -186 135 -282 171 -363
465 -950 475 -947 12 4 81 161 219 499 93 228 167 402 222 523 49 109 53 119
90 205 21 47 41 89 46 94 21 23 2 26 -122 24 l-131 -3 -84 -210 c-96 -239
-239 -616 -249 -658 -4 -15 -11 -29 -15 -32 -7 -4 -206 452 -329 755 -28 69
-56 132 -61 140 -12 19 -250 29 -250 11z"/>
<path d="M8447 5093 c-9 -8 -9 -255 0 -846 l6 -467 99 0 98 0 0 463 c0 255 -3
552 -7 660 l-6 197 -92 0 c-50 0 -95 -3 -98 -7z"/>
<path d="M760 4402 l0 -649 107 -6 c59 -3 108 -5 110 -3 1 1 3 129 3 284 l1
282 245 0 244 0 0 -280 0 -280 115 0 116 0 -3 648 -3 647 -112 3 -113 3 0
-276 0 -275 -240 0 -240 0 -2 273 -3 272 -112 3 -113 3 0 -649z"/>
<path d="M8985 4943 c-80 -10 -74 0 -77 -136 l-3 -122 -52 -3 -53 -3 0 -75 0
-74 49 0 49 0 4 -312 c3 -292 5 -316 24 -359 34 -74 101 -109 208 -109 122 1
191 59 191 162 0 31 -3 60 -7 64 -4 4 -25 -5 -45 -19 -67 -45 -125 -44 -160 2
-9 12 -12 91 -13 294 l0 277 115 0 116 0 -3 78 -3 77 -115 2 -115 1 -3 131 -3
131 -37 -1 c-20 -1 -50 -4 -67 -6z"/>
<path d="M4258 4933 c-16 -4 -18 -18 -18 -119 l0 -114 -85 0 -85 0 0 -80 0
-80 80 0 80 0 0 -260 c0 -283 6 -335 50 -404 58 -90 189 -123 301 -75 l49 21
0 74 0 73 -27 -15 c-34 -17 -83 -18 -117 -3 -51 24 -56 54 -56 333 l0 256 95
0 95 0 0 80 0 79 -92 3 -93 3 -3 118 -3 117 -77 -1 c-42 -1 -85 -3 -94 -6z"/>
<path d="M2168 4701 c-117 -38 -208 -114 -254 -215 -35 -77 -49 -198 -34 -298
31 -214 136 -354 310 -414 43 -15 83 -19 181 -19 124 0 126 0 200 37 40 20 89
52 108 72 l34 35 -20 25 c-65 82 -85 100 -102 87 -44 -32 -127 -61 -189 -67
-120 -11 -231 49 -278 151 -43 90 -55 85 199 85 123 0 259 3 302 7 l78 6 -6
126 c-6 162 -27 222 -107 302 -43 43 -69 60 -119 77 -83 28 -220 29 -303 3z
m215 -177 c52 -26 85 -64 103 -116 9 -27 14 -51 13 -52 -2 -2 -95 -6 -206 -8
-192 -4 -203 -3 -203 14 0 54 59 139 115 164 42 19 139 17 178 -2z"/>
<path d="M3061 4700 c-69 -18 -189 -76 -218 -104 -10 -9 -5 -27 24 -86 20 -41
37 -77 39 -79 2 -2 17 8 33 22 77 64 222 107 318 92 67 -10 112 -55 120 -121
l5 -51 -119 -5 c-138 -7 -260 -36 -327 -79 -149 -94 -181 -328 -59 -440 57
-54 90 -64 203 -64 97 0 110 2 165 30 32 17 76 46 97 66 21 20 40 34 43 31 3
-3 5 -34 5 -70 l0 -64 93 4 94 3 6 318 c3 179 2 342 -3 374 -25 151 -140 231
-345 239 -78 3 -116 0 -174 -16z m319 -530 c0 -76 -17 -116 -65 -159 -57 -50
-110 -71 -183 -71 -60 0 -66 2 -98 34 -26 26 -34 42 -34 70 0 59 37 114 98
146 38 19 142 38 215 39 l67 1 0 -60z"/>
<path d="M6885 4700 c-101 -18 -232 -75 -264 -114 -14 -16 3 -66 42 -123 26
-39 31 -40 60 -12 56 53 169 89 279 89 123 0 145 -17 150 -120 l3 -45 -115 -6
c-189 -10 -309 -48 -382 -121 -107 -107 -117 -275 -21 -373 59 -60 133 -89
228 -90 69 0 89 5 148 33 38 17 86 46 107 62 l39 31 3 -52 3 -52 100 2 c55 1
101 4 103 6 2 2 0 154 -5 337 -11 371 -12 375 -83 452 -60 65 -140 97 -253
101 -51 2 -114 0 -142 -5z m273 -529 c-6 -104 -25 -143 -90 -186 -54 -36 -151
-53 -206 -37 -60 18 -92 56 -92 108 0 51 30 91 95 130 47 27 210 73 264 74
l34 0 -5 -89z"/>
<path d="M7538 4683 l-28 -4 0 -197 c1 -501 25 -600 165 -664 94 -43 284 -19
340 42 28 31 35 24 35 -30 l0 -50 100 0 100 0 0 450 0 450 -94 0 -95 0 -3
-297 -3 -298 -27 -47 c-38 -64 -97 -93 -179 -85 -69 6 -101 24 -126 70 -16 28
-18 68 -21 345 l-3 312 -23 0 c-13 0 -43 2 -67 4 -24 2 -56 2 -71 -1z"/>
<path d="M9555 3879 c4 -6 -7 -39 -24 -74 -38 -76 -107 -141 -197 -184 -73
-35 -225 -70 -332 -76 l-77 -4 55 10 c134 26 245 50 250 56 3 3 -11 3 -30 -1
-195 -39 -557 -47 -970 -21 -129 8 -347 19 -485 25 -137 6 -385 17 -550 25
-261 12 -558 19 -662 16 -65 -2 -32 -21 40 -23 72 -2 71 -2 -23 -7 l-95 -6 65
-7 c102 -12 469 -38 530 -38 54 0 110 -18 65 -21 -11 -1 43 -7 120 -15 77 -8
271 -28 430 -45 933 -99 1457 -90 1704 28 123 59 205 160 217 269 6 51 -8 104
-26 104 -6 0 -8 -5 -5 -11z m-842 -346 c-7 -2 -21 -2 -30 0 -10 3 -4 5 12 5
17 0 24 -2 18 -5z m140 0 c-13 -2 -33 -2 -45 0 -13 2 -3 4 22 4 25 0 35 -2 23
-4z"/>
<path d="M6405 3650 c28 -12 75 -12 75 0 0 6 -21 10 -47 9 -36 0 -43 -3 -28
-9z"/>
<path d="M6775 3490 c55 -8 213 -22 785 -66 247 -19 650 -44 713 -44 26 0 47
4 47 8 0 4 -93 14 -207 20 -115 7 -316 21 -448 32 -487 40 -1018 69 -890 50z"/>
<path d="M4365 3458 c-66 -6 -127 -12 -135 -15 -8 -3 -64 -7 -125 -9 -95 -4
-510 -35 -630 -48 -59 -6 222 3 440 14 232 12 576 47 589 60 7 7 5 9 -4 8 -8
-1 -69 -5 -135 -10z"/>
<path d="M3208 3373 c6 -2 18 -2 25 0 6 3 1 5 -13 5 -14 0 -19 -2 -12 -5z"/>
<path d="M3373 3373 c9 -2 25 -2 35 0 9 3 1 5 -18 5 -19 0 -27 -2 -17 -5z"/>
</g>
</svg>
